{"title":"Nina Mercedez - Fully Loaded (XXX)(iPod,PSP,Zune)","uid":6250112,"size":681274099,"categoryP":"porn","categoryS":"movies","magnet":"?xt=urn:btih:f75620682a3ae66f14f11e9576b4495a30313da8&amp;dn=Nina+Mercedez+-+Fully+Loaded+%28XXX%29%28iPod%2CPSP%2CZune%29&amp;tr=udp%3A%2F%2Ftracker.openbittorrent.com%3A80&amp;tr=udp%3A%2F%2Fopen.demonii.com%3A1337&amp;tr=udp%3A%2F%2Ftracker.coppersurfer.tk%3A6969&amp;tr=udp%3A%2F%2Fexodus.desync.com%3A6969","seeders":3,"leechers":0,"uploader":"sreerockz","files":-1,"time":1300379778,"description":"\nSCREENSHOTS:\n &lt;a href=&quot;\nhttp://lnk.co/GX05E&quot; rel=&quot;nofollow&quot; target=&quot;_NEW&quot;&gt;\nhttp://lnk.co/GX05E&lt;/a&gt;\n &lt;a href=&quot;\nhttp://lnk.co/GX05H&quot; rel=&quot;nofollow&quot; target=&quot;_NEW&quot;&gt;\nhttp://lnk.co/GX05H&lt;/a&gt;\n &lt;a href=&quot;\nhttp://lnk.co/GX05I&quot; rel=&quot;nofollow&quot; target=&quot;_NEW&quot;&gt;\nhttp://lnk.co/GX05I&lt;/a&gt;\n\nVideo\nID                               : 1\nFormat                           : AVC\nFormat/Info                      : Advanced Video Codec\nFormat profile                   : &lt;a class=&quot;__cf_email__&quot; href=&quot;/cdn-cgi/l/email-protection&quot; data-cfemail=&quot;73311200161f1a1d16333f425d40&quot;&gt;[email&amp;#160;protected]&lt;/a&gt;&lt;script cf-hash='f9e31' type=&quot;text/javascript&quot;&gt;\n/* &lt;![CDATA[ */!function(){try{var t=&quot;currentScript&quot;in document?document.currentScript:function(){for(var t=document.getElementsByTagName(&quot;script&quot;),e=t.length;e--;)if(t[e].getAttribute(&quot;cf-hash&quot;))return t[e]}();if(t&amp;&amp;t.previousSibling){var e,r,n,i,c=t.previousSibling,a=c.getAttribute(&quot;data-cfemail&quot;);if(a){for(e=&quot;&quot;,r=parseInt(a.substr(0,2),16),n=2;a.length-n;n+=2)i=parseInt(a.substr(n,2),16)^r,e+=String.fromCharCode(i);e=document.createTextNode(e),c.parentNode.replaceChild(e,c)}}}catch(u){}}();/* ]]&gt; */&lt;/script&gt;\nFormat settings, CABAC           : No\nFormat settings, ReFrames        : 2 frames\nCodec ID                         : avc1\nCodec ID/Info                    : Advanced Video Coding\nDuration                         : 3h 37mn\nBit rate mode                    : Variable\nBit rate                         : 350 Kbps\nWidth                            : 368 pixels\nHeight                           : 272 pixels\nDisplay aspect ratio             : 4:3\nFrame rate mode                  : Variable\nFrame rate                       : 23.976 fps\nMinimum frame rate               : 23.974 fps\nMaximum frame rate               : 23.981 fps\nColor space                      : YUV\nChroma subsampling               : 4:2:0\nBit depth                        : 8 bits\nScan type                        : Progressive\nBits/(Pixel*Frame)               : 0.146\nStream size                      : 544 MiB (84%)\nWriting library                  : x264 core 112\n\nAudio\nID                               : 2\nFormat                           : AAC\nFormat/Info                      : Advanced Audio Codec\nFormat profile                   : LC\nCodec ID                         : 40\nDuration                         : 3h 37mn\nBit rate mode                    : Variable\nBit rate                         : 64.0 Kbps\nMaximum bit rate                 : 87.4 Kbps\nChannel(s)                       : 1 channel\nChannel positions                : Front: C\nSampling rate                    : 44.1 KHz\nCompression mode                 : Lossy\nStream size                      : 99.5 MiB (15%)\nLanguage                         : English\n\nencoded for iPod,PSP,Zune and other handheld devices...:)\n","torrent":{"xt":"urn:btih:f75620682a3ae66f14f11e9576b4495a30313da8","amp;dn":"Nina+Mercedez+-+Fully+Loaded+%28XXX%29%28iPod%2CPSP%2CZune%29","amp;tr":["udp%3A%2F%2Ftracker.openbittorrent.com%3A80","udp%3A%2F%2Fopen.demonii.com%3A1337","udp%3A%2F%2Ftracker.coppersurfer.tk%3A6969","udp%3A%2F%2Fexodus.desync.com%3A6969"],"infoHash":"f75620682a3ae66f14f11e9576b4495a30313da8","infoHashBuffer":{"type":"Buffer","data":[247,86,32,104,42,58,230,111,20,241,30,149,118,180,73,90,48,49,61,168]},"announce":[],"urlList":[]}}